<svg xmlns="http://www.w3.org/2000/svg" xmlns:xlink="http://www.w3.org/1999/xlink" width="54" height="54" viewBox="0 0 54 54">
  <defs>
    <linearGradient id="linear-gradient" x1="0.862" y1="0.13" x2="0.159" y2="0.815" gradientUnits="objectBoundingBox">
      <stop offset="0" stop-color="#1d9bf0"/>
      <stop offset="0" stop-color="#bd00a4"/>
      <stop offset="0.507" stop-color="#f40002"/>
      <stop offset="1" stop-color="#fec11d"/>
    </linearGradient>
  </defs>
  <g id="Group_63" data-name="Group 63" transform="translate(-194 -1120)">
    <circle id="Ellipse_24" data-name="Ellipse 24" cx="27" cy="27" r="27" transform="translate(194 1120)" fill="url(#linear-gradient)"/>
    <path id="Icon_awesome-instagram" data-name="Icon awesome-instagram" d="M9.876,7.05a5.065,5.065,0,1,0,5.065,5.065A5.057,5.057,0,0,0,9.876,7.05Zm0,8.357a3.293,3.293,0,1,1,3.293-3.293,3.3,3.3,0,0,1-3.293,3.293ZM16.33,6.843a1.181,1.181,0,1,1-1.181-1.181A1.179,1.179,0,0,1,16.33,6.843Zm3.354,1.2a5.846,5.846,0,0,0-1.6-4.139,5.885,5.885,0,0,0-4.139-1.6c-1.631-.093-6.519-.093-8.15,0A5.876,5.876,0,0,0,1.66,3.9a5.865,5.865,0,0,0-1.6,4.139c-.093,1.631-.093,6.519,0,8.15a5.846,5.846,0,0,0,1.6,4.139,5.892,5.892,0,0,0,4.139,1.6c1.631.093,6.519.093,8.15,0a5.846,5.846,0,0,0,4.139-1.6,5.885,5.885,0,0,0,1.6-4.139c.093-1.631.093-6.515,0-8.146Zm-2.107,9.9A3.334,3.334,0,0,1,15.7,19.816c-1.3.516-4.386.4-5.823.4s-4.527.115-5.823-.4a3.334,3.334,0,0,1-1.878-1.878c-.516-1.3-.4-4.386-.4-5.823s-.115-4.527.4-5.823A3.334,3.334,0,0,1,4.053,4.414c1.3-.516,4.386-.4,5.823-.4s4.527-.115,5.823.4a3.334,3.334,0,0,1,1.878,1.878c.516,1.3.4,4.386.4,5.823S18.093,16.642,17.577,17.938Z" transform="translate(211.126 1134.885)" fill="#fff"/>
  </g>
</svg>
