<svg xmlns="http://www.w3.org/2000/svg" xmlns:xlink="http://www.w3.org/1999/xlink" width="375" height="1296" viewBox="0 0 375 1296">
  <defs>
    <clipPath id="clip-top_1">
      <rect width="375" height="1296"/>
    </clipPath>
  </defs>
  <g id="top_1" data-name="top – 1" clip-path="url(#clip-top_1)">
    <g id="パス_112" data-name="パス 112" transform="translate(310.581 1178.895) rotate(11)" fill="#cbbcff">
      <path d="M 67.54611968994141 136.7266235351562 C 59.00346755981445 136.7266235351562 52.05801391601562 135.9743347167969 45.68837738037109 134.3591156005859 C 41.73877716064453 133.3575744628906 37.95646667480469 131.9944915771484 34.44650268554688 130.3077392578125 C 30.56373977661133 128.4418182373047 26.86115837097168 126.1075134277344 23.44161224365234 123.3696060180664 C 13.53217697143555 115.4354782104492 7.363267421722412 107.2453842163086 4.027704238891602 97.59489440917969 C 1.090122222900391 89.09591674804688 0.4999949336051941 80.12435150146484 0.4999949336051941 68.40369415283203 C 0.4999949336051941 63.85895156860352 1.206249475479126 59.27045822143555 2.599158525466919 54.76567840576172 C 3.929176807403564 50.46426010131836 5.901649475097656 46.18298721313477 8.461776733398438 42.04076766967773 C 10.91837692260742 38.06605911254883 13.93681335449219 34.18415069580078 17.43325042724609 30.50287818908691 C 20.81326675415039 26.94418716430664 24.65392303466797 23.55724143981934 28.84850311279297 20.43611335754395 C 37.01226806640625 14.36164093017578 46.5096321105957 9.316750526428223 56.31386947631836 5.846858978271484 C 61.20579528808594 4.115513801574707 66.1494140625 2.781332015991211 71.00739288330078 1.881368279457092 C 75.95513916015625 0.9647682905197144 80.80888366699219 0.5000046491622925 85.43381500244141 0.5000046491622925 C 93.41596221923828 0.5000046491622925 98.32046508789062 2.043877363204956 100.4275741577148 5.21985912322998 C 101.9840316772461 7.565877437591553 102.1363754272461 10.88309574127197 100.9069747924805 15.65933227539062 C 99.77159118652344 20.07033157348633 97.54735565185547 25.34214973449707 95.19254302978516 30.92349624633789 C 92.88730621337891 36.38733291625977 90.27450561523438 42.58016967773438 88.3009033203125 48.89691543579102 C 86.03519439697266 56.14862442016602 84.93381500244141 62.52935028076172 84.93381500244141 68.40369415283203 C 84.93381500244141 74.27803802490234 86.03519439697266 80.65876770019531 88.3009033203125 87.91047668457031 C 90.27450561523438 94.22722625732422 92.88730621337891 100.4200592041016 95.19254302978516 105.8838958740234 C 97.54735565185547 111.4652404785156 99.77159118652344 116.737060546875 100.9069747924805 121.1480560302734 C 102.1363754272461 125.9242935180664 101.9840316772461 129.2415161132812 100.4275741577148 131.5875244140625 C 98.32046508789062 134.7635192871094 93.41596221923828 136.3073883056641 85.43381500244141 136.3073883056641 C 82.97075653076172 136.3073883056641 80.31708526611328 136.4004821777344 77.50759124755859 136.4990234375 C 74.31774139404297 136.6109161376953 71.01930236816406 136.7266235351562 67.54611968994141 136.7266235351562 Z" stroke="none"/>
      <path d="M 85.43381500244141 1 C 80.83935546875 1 76.01625061035156 1.461944580078125 71.09846496582031 2.37298583984375 C 66.26614379882812 3.268218994140625 61.34801483154297 4.595565795898438 56.48068237304688 6.318206787109375 C 46.72297668457031 9.771636962890625 37.27114105224609 14.79224395751953 29.14699554443359 20.83725738525391 C 24.97526550292969 23.94135284423828 21.15617370605469 27.30918884277344 17.7957763671875 30.84722137451172 C 14.32297515869141 34.50360107421875 11.32565307617188 38.35809326171875 8.8870849609375 42.30364227294922 C 3.653594970703125 50.77131652832031 0.9999923706054688 59.55264282226562 0.9999923706054688 68.40369415283203 C 0.9999923706054688 80.072509765625 1.585540771484375 88.9986572265625 4.500267028808594 97.43156433105469 C 7.803611755371094 106.9888458251953 13.92164611816406 115.106803894043 23.75410461425781 122.9792785644531 C 27.14410400390625 125.6935348510742 30.81441497802734 128.0075531005859 34.66307067871094 129.8570709228516 C 38.14308929443359 131.5294342041016 41.89388275146484 132.8810729980469 45.81128692626953 133.8744659423828 C 52.1396484375 135.4792022705078 59.04605102539062 136.2266235351562 67.546142578125 136.2266235351562 C 71.01054382324219 136.2266235351562 74.30453491210938 136.111083984375 77.49006652832031 135.9993286132812 C 80.30406951904297 135.9006195068359 82.96199035644531 135.8073883056641 85.43381500244141 135.8073883056641 C 93.23541259765625 135.8073883056641 98.00363159179688 134.3366394042969 100.0109252929688 131.3111114501953 C 101.4834289550781 129.0916442871094 101.6143035888672 125.90185546875 100.4227600097656 121.2726974487305 C 99.29655456542969 116.8974227905273 97.07929992675781 111.6421127319336 94.73186492919922 106.0782623291016 C 92.42223358154297 100.60400390625 89.80445098876953 94.39936828613281 87.82366943359375 88.05958557128906 C 85.54264831542969 80.75888061523438 84.43381500244141 74.32938385009766 84.43381500244141 68.40369415283203 C 84.43381500244141 62.47800445556641 85.54264831542969 56.04851531982422 87.82366943359375 48.747802734375 C 89.80445098876953 42.40802001953125 92.42223358154297 36.20338439941406 94.73186492919922 30.72913360595703 C 97.07929992675781 25.16527557373047 99.29655456542969 19.90996551513672 100.4227600097656 15.53469848632812 C 101.6143035888672 10.90553283691406 101.4834289550781 7.715744018554688 100.0109252929688 5.49627685546875 C 98.00363159179688 2.470748901367188 93.23541259765625 1 85.43381500244141 1 M 85.43381500244141 0 C 123.2121429443359 0 85.43381500244141 34.20184326171875 85.43381500244141 68.40369415283203 C 85.43381500244141 102.6055450439453 123.2121429443359 136.8073883056641 85.43381500244141 136.8073883056641 C 69.22690582275391 136.8073883056641 44.48754119873047 140.8608093261719 23.12908935546875 123.759895324707 C 1.770652770996094 106.6589660644531 -7.62939453125e-06 89.97512817382812 -7.62939453125e-06 68.40369415283203 C -7.62939453125e-06 30.62538909912109 47.65548706054688 0 85.43381500244141 0 Z" stroke="none" fill="#fff"/>
    </g>
    <g id="パス_55" data-name="パス 55" transform="translate(-398.428 477.098) rotate(-25)" fill="#6bfddb">
      <path d="M 205.3196868896484 508.048828125 C 198.0929565429688 508.048828125 190.6736907958984 506.3489685058594 182.6378936767578 502.85205078125 C 178.3322906494141 500.9783630371094 173.7913513183594 498.5454406738281 169.1411590576172 495.6206970214844 C 164.2912902832031 492.5703735351562 159.1538238525391 488.8793029785156 153.8715515136719 484.64990234375 C 144.7450866699219 477.3427734375 135.4021606445312 469.0776977539062 126.1022872924805 460.0842895507812 C 116.9024887084961 451.1876220703125 107.710090637207 441.5451049804688 98.78042602539062 431.4244995117188 C 89.84169006347656 421.2935791015625 81.13835906982422 410.6520385742188 72.91222381591797 399.7954406738281 C 64.58029174804688 388.7991638183594 56.7040901184082 377.5371704101562 49.50255584716797 366.3222961425781 C 42.13129043579102 354.8432312011719 35.42002487182617 343.3395690917969 29.55508995056152 332.1309814453125 C 23.50142288208008 320.5615844726562 18.29249000549316 309.1958923339844 14.07295703887939 298.3495788574219 C 5.066623210906982 275.1987609863281 0.5000234246253967 254.4062957763672 0.5000234246253967 236.5496978759766 C 0.5000234246253967 228.5452423095703 1.131423473358154 220.433837890625 2.37675666809082 212.4408416748047 C 3.59182333946228 204.6415710449219 5.421223640441895 196.7631072998047 7.814090251922607 189.0244293212891 C 12.44422340393066 174.0501708984375 19.30862426757812 159.1496429443359 28.21655654907227 144.7367706298828 C 36.75615692138672 130.9199066162109 47.24622344970703 117.4283676147461 59.39548873901367 104.6369018554688 C 71.13235473632812 92.27957153320312 84.46681976318359 80.52003479003906 99.02855682373047 69.68496704101562 C 113.2499542236328 59.10316848754883 128.6447601318359 49.3985710144043 144.7852935791016 40.84077072143555 C 160.7635498046875 32.36903762817383 177.4332275390625 25.04117012023926 194.3312835693359 19.06063652038574 C 211.3087615966797 13.05203628540039 228.4670867919922 8.421436309814453 245.3298187255859 5.297503471374512 C 262.513427734375 2.114170074462891 279.3736877441406 0.5000366568565369 295.4422912597656 0.5000366568565369 C 302.7636108398438 0.5000366568565369 309.435302734375 0.880370020866394 315.2718811035156 1.630436658859253 C 320.9658813476562 2.362169981002808 326.0551452636719 3.470303297042847 330.3982238769531 4.924036502838135 C 334.6097717285156 6.333703517913818 338.2628173828125 8.116503715515137 341.2560119628906 10.2229700088501 C 344.1415710449219 12.25370311737061 346.5172119140625 14.65883636474609 348.3169555664062 17.37150382995605 C 349.7990112304688 19.60536956787109 350.9419555664062 22.12457084655762 351.7140808105469 24.8592357635498 C 352.4588317871094 27.49703598022461 352.8859558105469 30.43256950378418 352.9834899902344 33.58423614501953 C 353.1662292480469 39.4896354675293 352.2364196777344 46.31770324707031 350.1409606933594 54.45863723754883 C 346.1920166015625 69.80030059814453 338.4832153320312 88.07157135009766 330.3217468261719 107.4156341552734 C 322.3607482910156 126.2847061157227 313.3375549316406 147.6714324951172 306.5303039550781 169.4590301513672 C 298.7327575683594 194.4160308837891 294.9422912597656 216.361572265625 294.9422912597656 236.5496978759766 C 294.9422912597656 256.7378234863281 298.7327575683594 278.6834411621094 306.5303039550781 303.6404418945312 C 313.3375549316406 325.4280395507812 322.3607482910156 346.814697265625 330.3217468261719 365.683837890625 C 338.4832153320312 385.0278930664062 346.1920166015625 403.2991638183594 350.1409606933594 418.6408386230469 C 352.2364196777344 426.7817687988281 353.1662292480469 433.6098327636719 352.9834899902344 439.5152282714844 C 352.8859558105469 442.6669006347656 352.4588317871094 445.6024475097656 351.7140808105469 448.240234375 C 350.9419555664062 450.9749145507812 349.7990112304688 453.4941101074219 348.3169555664062 455.7279663085938 C 346.5172119140625 458.4406433105469 344.1415710449219 460.8457641601562 341.2560119628906 462.8764953613281 C 338.2628173828125 464.9829711914062 334.6097717285156 466.7657775878906 330.3982238769531 468.1754455566406 C 326.0551452636719 469.6291809082031 320.9658813476562 470.7373046875 315.2718811035156 471.4690246582031 C 309.435302734375 472.2191162109375 302.7636108398438 472.5994262695312 295.4422912597656 472.5994262695312 C 290.4369506835938 472.5994262695312 285.6633605957031 473.1465148925781 280.848876953125 474.2718505859375 C 276.5777587890625 475.2701721191406 272.3853454589844 476.7010498046875 268.0321655273438 478.6463012695312 C 259.9837036132812 482.2427062988281 252.7560272216797 487.0128479003906 245.766357421875 491.6259155273438 C 232.9696960449219 500.0715637207031 220.8826293945312 508.048828125 205.3196868896484 508.048828125 Z" stroke="none"/>
      <path d="M 295.4422302246094 1 C 279.4041748046875 1 262.5744934082031 2.61126708984375 245.4208221435547 5.78912353515625 C 228.5838165283203 8.90826416015625 211.4509582519531 13.53204345703125 194.4980926513672 19.53192138671875 C 177.6231536865234 25.50433349609375 160.9761657714844 32.82223510742188 145.0195617675781 41.28244018554688 C 128.9012756347656 49.828369140625 113.5281677246094 59.51937866210938 99.3270263671875 70.08609008789062 C 84.78823852539062 80.9041748046875 71.47528076171875 92.64456176757812 59.75802612304688 104.9811706542969 C 47.63241577148438 117.7478332519531 37.16342163085938 131.2119750976562 28.64187622070312 144.9996337890625 C 19.75616455078125 159.3764953613281 12.909423828125 174.2383117675781 8.291748046875 189.1720886230469 C 5.906097412109375 196.8877563476562 4.0821533203125 204.7423706054688 2.870758056640625 212.517822265625 C 1.629425048828125 220.4854431152344 1.000030517578125 228.5708923339844 1.000030517578125 236.5497131347656 C 1.000030517578125 254.3440246582031 5.555145263671875 275.0755004882812 14.53897094726562 298.1683044433594 C 18.75177001953125 308.9974365234375 23.95303344726562 320.3460998535156 29.99807739257812 331.899169921875 C 35.85623168945312 343.0946960449219 42.55996704101562 354.58544921875 49.9232177734375 366.0521240234375 C 57.11788940429688 377.2561645507812 64.98654174804688 388.5074462890625 73.31076049804688 399.4934997558594 C 81.52935791015625 410.3402404785156 90.22476196289062 420.9720458984375 99.15530395507812 431.0936889648438 C 108.0762939453125 441.2044372558594 117.2594909667969 450.8373718261719 126.4498291015625 459.724853515625 C 135.7385559082031 468.7074279785156 145.0696105957031 476.962158203125 154.1839599609375 484.2596435546875 C 159.4515686035156 488.4771728515625 164.5734252929688 492.1571655273438 169.4072875976562 495.1974487304688 C 174.0362243652344 498.1087646484375 178.5547637939453 500.5299072265625 182.8373565673828 502.3934936523438 C 190.8089599609375 505.8624877929688 198.1630249023438 507.5487670898438 205.3196868896484 507.5487670898438 C 220.7324829101562 507.5487670898438 232.7586975097656 499.6116943359375 245.4909515380859 491.2085571289062 C 252.4974212646484 486.5844421386719 259.7423706054688 481.8028259277344 267.8280944824219 478.1897583007812 C 272.2107543945312 476.2314453125 276.4326171875 474.7905883789062 280.7350158691406 473.7849731445312 C 285.5872802734375 472.6507568359375 290.3980712890625 472.0994262695312 295.4422302246094 472.0994262695312 C 302.7422790527344 472.0994262695312 309.3925476074219 471.7205200195312 315.2081604003906 470.9731140136719 C 320.869873046875 470.2455139160156 325.9272155761719 469.1447143554688 330.239501953125 467.7012939453125 C 334.405029296875 466.3070373535156 338.0146789550781 464.5461730957031 340.9682312011719 462.4675598144531 C 343.8027648925781 460.4727783203125 346.1351013183594 458.1122436523438 347.9002990722656 455.4515075683594 C 349.3536376953125 453.260986328125 350.4748229980469 450.7890319824219 351.2328186035156 448.1043701171875 C 351.966552734375 445.5057678222656 352.3874206542969 442.6107788085938 352.4837036132812 439.4996948242188 C 352.6648864746094 433.6422424316406 351.740234375 426.8600463867188 349.6566772460938 418.7655029296875 C 345.7169494628906 403.4595642089844 338.0150756835938 385.2047729492188 329.861083984375 365.878173828125 C 321.8956298828125 346.9987182617188 312.867431640625 325.6001586914062 306.0529479980469 303.7894897460938 C 298.2401733398438 278.7835083007812 294.4422302246094 256.7891845703125 294.4422302246094 236.5497131347656 C 294.4422302246094 216.3102416992188 298.2401733398438 194.31591796875 306.0529479980469 169.3099060058594 C 312.867431640625 147.4992980957031 321.8956298828125 126.1007690429688 329.8610229492188 107.2213134765625 C 338.0150756835938 87.89462280273438 345.7169494628906 69.639892578125 349.6566772460938 54.333984375 C 351.740234375 46.2393798828125 352.6648864746094 39.45718383789062 352.4837036132812 33.59970092773438 C 352.3874206542969 30.4886474609375 351.966552734375 27.5936279296875 351.2328186035156 24.99505615234375 C 350.4748229980469 22.31036376953125 349.3536376953125 19.83843994140625 347.9002990722656 17.64788818359375 C 346.1351013183594 14.98724365234375 343.8027648925781 12.62664794921875 340.9682312011719 10.6318359375 C 338.0146789550781 8.55322265625 334.405029296875 6.7923583984375 330.239501953125 5.39813232421875 C 325.9272155761719 3.9547119140625 320.869873046875 2.8538818359375 315.2081604003906 2.12628173828125 C 309.3925476074219 1.37890625 302.7422790527344 1 295.4422302246094 1 M 295.4422302246094 0 C 426.0850830078125 0 295.4422302246094 118.2748413085938 295.4422302246094 236.5497131347656 C 295.4422302246094 354.8246459960938 426.0850830078125 473.0994262695312 295.4422302246094 473.0994262695312 C 255.8640289306641 473.0994262695312 238.2571411132812 508.5487976074219 205.3196563720703 508.5487976074219 C 191.6151580810547 508.5487976074219 175.2608947753906 502.4161682128906 153.5589599609375 485.0402221679688 C 79.69842529296875 425.9030456542969 3.0517578125e-05 311.1468505859375 3.0517578125e-05 236.5497131347656 C 3.0517578125e-05 105.906982421875 164.7994995117188 0 295.4422302246094 0 Z" stroke="none" fill="#fff"/>
    </g>
    <g id="パス_45" data-name="パス 45" transform="matrix(0.755, 0.656, -0.656, 0.755, 9.937, 252.496)" fill="#6298ff">
      <path d="M 52.04698944091797 117.4493179321289 C 49.66996002197266 117.4493179321289 48.15983581542969 116.6815490722656 47.15052795410156 114.9598770141602 C 46.17835998535156 113.3015518188477 45.71254348754883 110.8480453491211 45.17315673828125 108.0071334838867 C 44.58938980102539 104.9324417114258 43.92774200439453 101.4475173950195 42.45378875732422 97.72109222412109 C 40.7369270324707 93.38056945800781 38.26495742797852 89.63095092773438 34.89665222167969 86.25799560546875 C 28.53232765197754 79.88490295410156 19.93054389953613 77.26821136474609 12.34134292602539 74.95956420898438 C 7.292004585266113 73.42355346679688 2.522696733474731 71.97271728515625 -0.8910877704620361 69.6248779296875 C -4.613010883331299 67.06511688232422 -6.346518516540527 63.68093490600586 -6.346518516540527 58.97465896606445 C -6.346518516540527 51.25864410400391 -4.500041484832764 43.60979843139648 -0.8583647012710571 36.24058151245117 C 0.8334660530090332 32.81701278686523 2.911942958831787 29.47378158569336 5.31931209564209 26.30376625061035 C 7.645573616027832 23.24053573608398 10.28858947753906 20.32539749145508 13.174973487854 17.63930511474609 C 18.78971290588379 12.41416645050049 25.32026672363281 8.075289726257324 32.06063461303711 5.09173583984375 C 38.84704971313477 2.087797403335571 45.75822067260742 0.4999974370002747 52.04698944091797 0.4999974370002747 C 58.33037185668945 0.4999974370002747 64.42701721191406 2.039751291275024 70.1676025390625 5.076489925384521 C 72.93000793457031 6.537797451019287 75.594970703125 8.346997261047363 78.08844757080078 10.45385932922363 C 80.56057739257812 12.54267406463623 82.88571166992188 14.94210529327393 84.99928283691406 17.58551979064941 C 89.29335784912109 22.95605850219727 92.66535949707031 29.21188926696777 95.02162170410156 36.17924499511719 C 97.46297454833984 43.39822769165039 98.70085144042969 51.06772232055664 98.70085144042969 58.97465896606445 C 98.70085144042969 66.88159942626953 97.46297454833984 74.55108642578125 95.02162170410156 81.77007293701172 C 92.66535949707031 88.7374267578125 89.29335784912109 94.99325561523438 84.99928283691406 100.3638000488281 C 82.88571166992188 103.007209777832 80.56057739257812 105.4066467285156 78.08844757080078 107.4954605102539 C 75.594970703125 109.6023178100586 72.93000793457031 111.4115219116211 70.1676025390625 112.8728256225586 C 64.42701721191406 115.9095687866211 58.33037185668945 117.4493179321289 52.04698944091797 117.4493179321289 Z" stroke="none"/>
      <path d="M 52.04698944091797 1 C 45.82737350463867 1 38.98619079589844 2.572998046875 32.26300430297852 5.548934936523438 C 25.57288360595703 8.510261535644531 19.09012603759766 12.81761169433594 13.51558685302734 18.00531768798828 C 10.65013122558594 20.67195129394531 8.026466369628906 23.56568908691406 5.717498779296875 26.60614776611328 C 3.329299926757812 29.75093841552734 1.267669677734375 33.06694793701172 -0.4101181030273438 36.46208953857422 C -4.0174560546875 43.76182556152344 -5.846534729003906 51.33615112304688 -5.846534729003906 58.97465896606445 C -5.846534729003906 61.38079833984375 -5.385475158691406 63.39426040649414 -4.437026977539062 65.13010406494141 C -3.583427429199219 66.69235229492188 -2.33087158203125 68.02784729003906 -0.6077651977539062 69.21290588378906 C 2.74224853515625 71.51689147949219 7.4755859375 72.956787109375 12.48684692382812 74.48121643066406 C 20.1322021484375 76.80693054199219 28.79763412475586 79.44297790527344 35.25045013427734 85.90467834472656 C 42.94946670532227 93.61430358886719 44.51861953735352 101.8791351318359 45.66439056396484 107.9138565063477 C 46.19509506225586 110.7091827392578 46.65345001220703 113.1233062744141 47.58186721801758 114.7070007324219 C 48.50326538085938 116.2787170410156 49.83861923217773 116.9493179321289 52.04698944091797 116.9493179321289 C 58.24802017211914 116.9493179321289 64.26602172851562 115.4290924072266 69.93379211425781 112.4308624267578 C 75.42695617675781 109.5249938964844 80.36434173583984 105.3600006103516 84.60875701904297 100.0515518188477 C 88.86637115478516 94.72660827636719 92.21040344238281 88.52194976806641 94.54795837402344 81.60989379882812 C 96.97183227539062 74.44261169433594 98.20083618164062 66.8270263671875 98.20083618164062 58.97465896606445 C 98.20083618164062 51.12229156494141 96.97183227539062 43.50670623779297 94.54795837402344 36.33943176269531 C 92.21040344238281 29.4273681640625 88.86637115478516 23.22270202636719 84.60875701904297 17.89776611328125 C 80.36434173583984 12.58931732177734 75.42695617675781 8.424324035644531 69.93379211425781 5.518455505371094 C 64.26602172851562 2.520225524902344 58.24802017211914 1 52.04698944091797 1 M 52.04698944091797 0 C 78.08934020996094 0 99.20083618164062 26.40386199951172 99.20083618164062 58.97465896606445 C 99.20083618164062 91.54545593261719 78.08934020996094 117.9493179321289 52.04698944091797 117.9493179321289 C 40.87480545043945 117.9493179321289 49.2662353515625 101.3549652099609 34.54285049438477 86.61128997802734 C 19.81946563720703 71.86764526367188 -6.846534729003906 77.57258605957031 -6.846534729003906 58.97465896606445 C -6.846534729003906 26.40386199951172 26.00462341308594 0 52.04698944091797 0 Z" stroke="none" fill="#fff"/>
    </g>
    <g id="パス_47" data-name="パス 47" transform="translate(366.765 580.007)" fill="#ffd64d">
      <path d="M 9.461531639099121 30.04387092590332 C 7.690651893615723 30.04387092590332 5.793231964111328 30.00642967224121 3.779762029647827 29.55891036987305 C 1.340161919593811 29.01667976379395 -0.6732980608940125 27.99864959716797 -2.375678062438965 26.4466609954834 C -4.251698017120361 24.73637962341309 -5.32329797744751 23.16366004943848 -5.850277900695801 21.34725952148438 C -6.34716796875 19.63455009460449 -6.346908092498779 17.78931999206543 -6.346578121185303 15.45319080352783 L -6.346558094024658 15.27184009552002 C -6.346558094024658 13.33790016174316 -5.83676815032959 11.41814041137695 -4.831347942352295 9.56588077545166 C -3.909548044204712 7.867680549621582 -2.558868169784546 6.238510608673096 -0.9253080487251282 4.854510307312012 C 2.293001890182495 2.127850532531738 6.341772079467773 0.5000004768371582 9.905152320861816 0.5000004768371582 C 13.34180164337158 0.5000004768371582 16.57655143737793 2.028160572052002 19.01352119445801 4.802960395812988 C 21.46664237976074 7.596150398254395 22.8176326751709 11.31407070159912 22.8176326751709 15.27184009552002 C 22.8176326751709 19.22961044311523 21.46664237976074 22.94753074645996 19.01352119445801 25.74073028564453 C 16.57655143737793 28.51552963256836 13.34180164337158 30.0436897277832 9.905152320861816 30.0436897277832 L 9.68917179107666 30.04378128051758 L 9.461531639099121 30.04387092590332 Z" stroke="none"/>
      <path d="M 9.9051513671875 1 C 8.223551750183105 1 6.367081642150879 1.38994026184082 4.536432266235352 2.127660751342773 C 2.70277214050293 2.86659049987793 0.9259023666381836 3.941440582275391 -0.6020984649658203 5.236000061035156 C -2.188867568969727 6.580360412597656 -3.499368667602539 8.160091400146484 -4.391908645629883 9.804410934448242 C -5.357147216796875 11.5826301574707 -5.8465576171875 13.42214012145996 -5.8465576171875 15.27184009552002 L -5.846578598022461 15.45329093933105 C -5.84722900390625 20.0646800994873 -5.847587585449219 22.6048698425293 -2.038827896118164 26.0771598815918 C 1.763812065124512 29.54387092590332 6.582442283630371 29.54387092590332 9.461482048034668 29.54387092590332 L 9.9051513671875 29.54368019104004 C 16.74941253662109 29.54368019104004 22.3176212310791 23.14136123657227 22.3176212310791 15.27184009552002 C 22.3176212310791 7.402320861816406 16.74941253662109 1 9.9051513671875 1 M 9.9051513671875 0 C 17.31265258789062 0 23.3176212310791 6.837440490722656 23.3176212310791 15.27184009552002 C 23.3176212310791 23.70625114440918 17.31265258789062 30.54368019104004 9.9051513671875 30.54368019104004 C 6.727331161499023 30.54368019104004 1.475391387939453 30.63412094116211 -2.71253776550293 26.81616020202637 C -6.900468826293945 22.99818992614746 -6.8465576171875 20.087890625 -6.8465576171875 15.27184009552002 C -6.8465576171875 6.837440490722656 2.497641563415527 0 9.9051513671875 0 Z" stroke="none" fill="#fff"/>
    </g>
    <g id="パス_56" data-name="パス 56" transform="translate(115.979 -147.331)" fill="#ffd64d">
      <path d="M 185.9049682617188 368.1620178222656 C 176.1315155029297 368.1620178222656 165.6259155273438 368.0970153808594 154.1102294921875 367.3202514648438 C 140.8281402587891 366.4242858886719 128.8785552978516 364.7419738769531 117.5786437988281 362.1772155761719 C 110.9999618530273 360.6840209960938 104.5740585327148 358.8638916015625 98.47946166992188 356.767333984375 C 91.86237335205078 354.4911193847656 85.41841888427734 351.8146667480469 79.32650756835938 348.8123474121094 C 72.78755187988281 345.5896606445312 66.45146179199219 341.8918762207031 60.49428176879883 337.8216247558594 C 54.15273666381836 333.4887390136719 48.05014419555664 328.6039428710938 42.35610198974609 323.3028869628906 C 30.42187309265137 312.1922912597656 21.20528221130371 301.5480346679688 14.17969131469727 290.7617797851562 C 7.639963626861572 280.7215270996094 2.914918422698975 270.3990783691406 -0.2653998136520386 259.2045593261719 C -3.058854341506958 249.3718872070312 -4.750490665435791 238.6595153808594 -5.589035987854004 225.4920196533203 C -6.350127220153809 213.5409698486328 -6.348399639129639 201.0182037353516 -6.346354484558105 186.5180206298828 L -6.346172332763672 184.3298797607422 C -6.346172332763672 171.9912872314453 -4.697627067565918 159.5358428955078 -1.446399807929993 147.3094787597656 C 1.655145645141602 135.6461944580078 6.253190994262695 124.0406112670898 12.22000885009766 112.8150634765625 C 17.93964576721191 102.0544738769531 24.96564483642578 91.54738616943359 33.102783203125 81.58560943603516 C 40.96341705322266 71.96238708496094 49.89391708374023 62.80474853515625 59.64628219604492 54.36711120605469 C 69.17032623291016 46.12701797485352 79.48005676269531 38.57011032104492 90.28910064697266 31.90629196166992 C 100.9887390136719 25.30997467041016 112.1510543823242 19.60433769226074 123.4661026000977 14.94797420501709 C 134.8328247070312 10.27029228210449 146.3202362060547 6.665474414825439 157.6092376708984 4.233747005462646 C 169.110595703125 1.7562016248703 180.3948669433594 0.5000197887420654 191.1485595703125 0.5000197887420654 C 201.8654632568359 0.5000197887420654 212.5756530761719 1.755428910255432 222.9815063476562 4.231383323669434 C 233.1236419677734 6.644565105438232 243.10009765625 10.24551963806152 252.6337432861328 14.93424701690674 C 261.9959106445312 19.53865623474121 271.0261535644531 25.23797416687012 279.4736022949219 31.8738842010498 C 287.8424072265625 38.44797515869141 295.7124328613281 45.998291015625 302.8649597167969 54.31502151489258 C 310.0186767578125 62.63311004638672 316.5136108398438 71.78638458251953 322.1692810058594 81.52052307128906 C 327.8799133300781 91.34920501708984 332.7848815917969 101.8567504882812 336.7478332519531 112.7512893676758 C 340.784423828125 123.8482437133789 343.8846435546875 135.4612426757812 345.9624328613281 147.2676544189453 C 348.0945129394531 159.3827972412109 349.1755676269531 171.852294921875 349.1755676269531 184.3298797607422 C 349.1755676269531 196.8074798583984 348.0945129394531 209.2770233154297 345.9624328613281 221.3921508789062 C 343.8846435546875 233.1985626220703 340.784423828125 244.8115692138672 336.7478332519531 255.9085235595703 C 332.7848815917969 266.8030700683594 327.8799133300781 277.3106689453125 322.1692810058594 287.1393432617188 C 316.5136108398438 296.8734741210938 310.0186767578125 306.0267028808594 302.8649597167969 314.3448486328125 C 295.7124328613281 322.6615600585938 287.8424072265625 330.2118530273438 279.4736022949219 336.7859802246094 C 271.0261535644531 343.421875 261.9959106445312 349.1211547851562 252.6337432861328 353.7255554199219 C 243.10009765625 358.414306640625 233.1236419677734 362.0152587890625 222.9815063476562 364.4284362792969 C 212.5756530761719 366.9043884277344 201.8654632568359 368.1597900390625 191.1485595703125 368.1597900390625 C 190.3108673095703 368.1597900390625 189.4608764648438 368.1603393554688 188.5991058349609 368.160888671875 C 187.7133331298828 368.1614685058594 186.8150482177734 368.1620178222656 185.9049682617188 368.1620178222656 Z" stroke="none"/>
      <path d="M 191.1485443115234 1 C 180.4301910400391 1 169.181396484375 2.25244140625 157.7144927978516 4.722503662109375 C 146.4544982910156 7.14801025390625 134.9956970214844 10.743896484375 123.6564025878906 15.41030883789062 C 112.3662414550781 20.05645751953125 101.2281951904297 25.74969482421875 90.55149841308594 32.3319091796875 C 79.76519775390625 38.98165893554688 69.47723388671875 46.52261352539062 59.97344970703125 54.74526977539062 C 50.2427978515625 63.16409301757812 41.33245849609375 72.30096435546875 33.489990234375 81.90194702148438 C 25.37353515625 91.83840942382812 18.36578369140625 102.3179931640625 12.6614990234375 113.0497436523438 C 6.712554931640625 124.2416534423828 2.1285400390625 135.8115539550781 -0.96319580078125 147.4380035400391 C -4.20330810546875 159.6224517822266 -5.84619140625 172.0347137451172 -5.84619140625 184.3299102783203 L -5.846405029296875 186.5181579589844 C -5.848419189453125 201.0097503662109 -5.85015869140625 213.5251617431641 -5.090118408203125 225.4602508544922 C -4.25384521484375 238.59130859375 -2.567962646484375 249.2703552246094 0.215484619140625 259.0679016113281 C 3.3819580078125 270.2134094238281 8.086700439453125 280.4913024902344 14.59860229492188 290.4888610839844 C 21.60174560546875 301.2405395507812 30.79275512695312 311.8544006347656 42.69680786132812 322.9368896484375 C 48.37255859375 328.220947265625 54.45538330078125 333.0899658203125 60.77633666992188 337.4087524414062 C 66.71414184570312 341.4657592773438 73.02969360351562 345.1515502929688 79.54754638671875 348.3638000488281 C 85.62060546875 351.3568420410156 92.04495239257812 354.0251159667969 98.64215087890625 356.2944946289062 C 104.7198028564453 358.3851928710938 111.1282501220703 360.2003479003906 117.689453125 361.6896057128906 C 128.9637451171875 364.2485961914062 140.8881530761719 365.9272155761719 154.1440887451172 366.8214111328125 C 165.6443481445312 367.59716796875 176.1402893066406 367.6620483398438 185.9051513671875 367.6620483398438 C 187.7007751464844 367.6620483398438 189.4497985839844 367.6598205566406 191.1485443115234 367.6598205566406 C 201.8265380859375 367.6598205566406 212.4977416992188 366.4089660644531 222.8657989501953 363.9420471191406 C 232.9716949462891 361.5374450683594 242.912841796875 357.94921875 252.4130554199219 353.2769165039062 C 261.7440490722656 348.6878662109375 270.7445983886719 343.0072021484375 279.1647338867188 336.392822265625 C 287.5080871582031 329.8387145996094 295.3544311523438 322.3110046386719 302.48583984375 314.018798828125 C 309.61962890625 305.7239074707031 316.0966491699219 296.5958251953125 321.7369384765625 286.8881530761719 C 327.4327392578125 277.0850219726562 332.3250427246094 266.6044006347656 336.2779541015625 255.7376098632812 C 340.3045959472656 244.6679534912109 343.3972473144531 233.0833129882812 345.4700012207031 221.3055114746094 C 347.5970458984375 209.2189025878906 348.675537109375 196.7785034179688 348.675537109375 184.3299102783203 C 348.675537109375 171.8813018798828 347.5970458984375 159.4409027099609 345.4700012207031 147.3543548583984 C 343.3972473144531 135.5765075683594 340.3045959472656 123.9919128417969 336.2779541015625 112.9222412109375 C 332.3250427246094 102.055419921875 327.4327392578125 91.57485961914062 321.7369384765625 81.77169799804688 C 316.0966491699219 72.06399536132812 309.61962890625 62.93594360351562 302.48583984375 54.64105224609375 C 295.3544311523438 46.34884643554688 287.5080871582031 38.8211669921875 279.1647338867188 32.26705932617188 C 270.7445983886719 25.65261840820312 261.7440490722656 19.97195434570312 252.4130554199219 15.38290405273438 C 242.912841796875 10.71060180664062 232.9716949462891 7.122344970703125 222.8657989501953 4.717742919921875 C 212.4977416992188 2.2508544921875 201.8265380859375 1 191.1485443115234 1 M 191.1485443115234 0 C 278.7005615234375 0 349.675537109375 82.52734375 349.675537109375 184.3299102783203 C 349.675537109375 286.132568359375 278.7005615234375 368.6598205566406 191.1485443115234 368.6598205566406 C 153.5889129638672 368.6598205566406 91.51411437988281 369.7513122558594 42.015380859375 323.6688232421875 C -7.483306884765625 277.5863037109375 -6.84619140625 242.4591674804688 -6.84619140625 184.3299102783203 C -6.84619140625 82.52734375 103.5964508056641 0 191.1485443115234 0 Z" stroke="none" fill="#fff"/>
    </g>
    <g id="パス_41" data-name="パス 41" transform="translate(375 129.084) rotate(110)" fill="#cbbcff">
      <path d="M 36.10111618041992 72.84300994873047 C 31.55517578125 72.84300994873047 27.86124420166016 72.44319915771484 24.47610473632812 71.58478546142578 C 20.02393531799316 70.455810546875 16.16351509094238 68.54892730712891 12.67423534393311 65.75518798828125 C 7.413815021514893 61.54336547851562 4.140424728393555 57.19961547851562 2.372664928436279 52.08514785766602 C 0.8132749199867249 47.5734977722168 0.5000048875808716 42.79963684082031 0.5000048875808716 36.55946731567383 C 0.5000048875808716 31.82237815856934 1.919994950294495 27.12295722961426 4.720534801483154 22.59174728393555 C 6.025115013122559 20.48097801208496 7.62853479385376 18.41898727416992 9.486254692077637 16.46305656433105 C 11.28362464904785 14.57067775726318 13.32628536224365 12.76936721801758 15.55750465393066 11.10915756225586 C 19.90232467651367 7.876267433166504 24.95714569091797 5.191247463226318 30.17551422119141 3.344377279281616 C 35.43325424194336 1.483567357063293 40.78821563720703 0.4999973177909851 45.66148376464844 0.4999973177909851 C 49.84362411499023 0.4999973177909851 52.40147399902344 1.291097283363342 53.48118591308594 2.918517351150513 C 55.24480438232422 5.576757431030273 53.12141418457031 10.60957717895508 50.66273498535156 16.43708801269531 C 49.42862319946289 19.3621768951416 48.02984619140625 22.67753791809082 46.97167587280273 26.0643367767334 C 45.75360488891602 29.96294784545898 45.16148376464844 33.39592742919922 45.16148376464844 36.55946731567383 C 45.16148376464844 39.72300720214844 45.75360488891602 43.15599822998047 46.97167587280273 47.05459594726562 C 48.02984619140625 50.44140625 49.42862319946289 53.75676727294922 50.66274642944336 56.68184661865234 C 53.12141418457031 62.50935745239258 55.24480438232422 67.54217529296875 53.48118591308594 70.20041656494141 C 52.40147399902344 71.82783508300781 49.84362411499023 72.61893463134766 45.66148376464844 72.61893463134766 C 44.34098434448242 72.61893463134766 42.92070388793945 72.66875457763672 41.41702651977539 72.72150421142578 C 39.71416473388672 72.78123474121094 37.95333480834961 72.84300994873047 36.10111618041992 72.84300994873047 Z" stroke="none"/>
      <path d="M 45.6614875793457 1 C 40.84438705444336 1 35.547119140625 1.973663330078125 30.34234237670898 3.815719604492188 C 25.17049789428711 5.646133422851562 20.16119766235352 8.306869506835938 15.85598754882812 11.51029968261719 C 11.37601089477539 14.84375381469727 7.672508239746094 18.76655578613281 5.145854949951172 22.85462188720703 C 2.394863128662109 27.30565643310547 1 31.91663360595703 1 36.55946731567383 C 1 42.74778747558594 1.308677673339844 47.47624206542969 2.845230102539062 51.92181015014648 C 4.580764770507812 56.94305419921875 7.803298950195312 61.21468734741211 12.98673248291016 65.36487579345703 C 16.41909790039062 68.11304473876953 20.21751022338867 69.98905181884766 24.5990104675293 71.10012054443359 C 27.94287490844727 71.94806671142578 31.59775543212891 72.34300231933594 36.10110855102539 72.34300231933594 C 37.94455337524414 72.34300231933594 39.70094299316406 72.28138732910156 41.39949798583984 72.22180938720703 C 42.90767669677734 72.16889953613281 44.33222198486328 72.11893463134766 45.6614875793457 72.11893463134766 C 47.79116439819336 72.11893463134766 49.51029968261719 71.90494537353516 50.77115249633789 71.48291015625 C 51.86027526855469 71.11835479736328 52.61045455932617 70.60842895507812 53.06454467773438 69.92398834228516 C 54.6798210144043 67.48933410644531 52.60477447509766 62.57107543945312 50.20206451416016 56.876220703125 C 48.96355438232422 53.94071197509766 47.55979919433594 50.61354446411133 46.49443054199219 47.20371246337891 C 45.26104354858398 43.25611114501953 44.6614875793457 39.77434539794922 44.6614875793457 36.55946731567383 C 44.6614875793457 33.34458923339844 45.26104354858398 29.86283111572266 46.49443054199219 25.91522216796875 C 47.55979919433594 22.50539016723633 48.96355438232422 19.17822265625 50.20206451416016 16.24272155761719 C 52.60477447509766 10.54786682128906 54.6798210144043 5.629608154296875 53.06454467773438 3.1949462890625 C 52.61045455932617 2.510498046875 51.86027526855469 2.000579833984375 50.77115249633789 1.636024475097656 C 49.51029968261719 1.2139892578125 47.79116439819336 1 45.6614875793457 1 M 45.6614875793457 0 C 65.85272979736328 0 45.6614875793457 18.27973175048828 45.6614875793457 36.55946731567383 C 45.6614875793457 54.83921051025391 65.85272979736328 73.11893463134766 45.6614875793457 73.11893463134766 C 36.99944305419922 73.11893463134766 23.77708435058594 75.28535461425781 12.36172103881836 66.14549255371094 C 0.94635009765625 57.00562286376953 0 48.08867645263672 0 36.55946731567383 C 0 16.36823272705078 25.47025299072266 0 45.6614875793457 0 Z" stroke="none" fill="#fff"/>
    </g>
    <g id="パス_110" data-name="パス 110" transform="translate(-27.528 1243.918)" fill="#ffd64d">
      <path d="M 29.44896697998047 67.4788818359375 C 25.47363662719727 67.4788818359375 21.2123966217041 67.3944091796875 16.67061614990234 66.38494110107422 C 14.12212753295898 65.81851196289062 11.72832679748535 64.99964904785156 9.555697441101074 63.95112228393555 C 7.050287246704102 62.74198913574219 4.740696907043457 61.18146896362305 2.691097021102905 59.31293106079102 C -1.57243287563324 55.42605209350586 -4.011602878570557 51.83879089355469 -5.21772289276123 47.68151092529297 C -6.347892761230469 43.78599166870117 -6.347302913665771 39.64076995849609 -6.34656286239624 34.39274978637695 L -6.346522808074951 33.98923110961914 C -6.346522808074951 29.58179092407227 -5.186953067779541 25.21078109741211 -2.900022983551025 20.99761962890625 C -0.8126028776168823 17.15201950073242 2.242767095565796 13.46554088592529 5.93576717376709 10.33670997619629 C 9.475417137145996 7.337810516357422 13.59274673461914 4.847430229187012 17.84263801574707 3.134800434112549 C 22.12001800537109 1.411100506782532 26.4748477935791 0.5000004768371582 30.43633651733398 0.5000004768371582 C 34.39046859741211 0.5000004768371582 38.22678756713867 1.382010459899902 41.83873748779297 3.121520519256592 C 45.33257675170898 4.804160594940186 48.47156524658203 7.21435022354126 51.16849899291992 10.28516006469727 C 53.86955642700195 13.36067008972168 55.99062728881836 16.94318962097168 57.47278594970703 20.93320083618164 C 59.00860595703125 25.06767082214355 59.78733825683594 29.46035003662109 59.78733825683594 33.98923110961914 C 59.78733825683594 38.51811981201172 59.00860595703125 42.91080856323242 57.47278594970703 47.04526901245117 C 55.99062728881836 51.0352897644043 53.86955642700195 54.6178092956543 51.16849899291992 57.69330978393555 C 48.47156524658203 60.76412200927734 45.33257675170898 63.17432022094727 41.83873748779297 64.85694885253906 C 38.22678756713867 66.59645843505859 34.39046859741211 67.47846984863281 30.43633651733398 67.47846984863281 L 29.95602798461914 67.47866821289062 L 29.44896697998047 67.4788818359375 Z" stroke="none"/>
      <path d="M 30.43633651733398 1 C 26.53827667236328 1 22.24806785583496 1.898567199707031 18.02952575683594 3.598564147949219 C 13.82856750488281 5.291469573974609 9.758377075195312 7.753398895263672 6.258975982666016 10.71820068359375 C 2.612758636474609 13.80739212036133 -0.4024124145507812 17.44443893432617 -2.460582733154297 21.23614883422852 C -4.707332611083984 25.37527084350586 -5.846523284912109 29.66603088378906 -5.846523284912109 33.98923110961914 L -5.846561431884766 34.392822265625 C -5.847301483154297 39.60111999511719 -5.847881317138672 43.71495819091797 -4.737522125244141 47.54219055175781 C -3.558544158935547 51.60591888427734 -1.163593292236328 55.1221923828125 3.027938842773438 58.94343185424805 C 5.041797637939453 60.77938842773438 7.311168670654297 62.31270980834961 9.773006439208984 63.50082015991211 C 11.91098785400391 64.53262329101562 14.2681770324707 65.33876800537109 16.77909851074219 65.8968505859375 C 21.27142715454102 66.89533233642578 25.50140762329102 66.9788818359375 29.44896697998047 66.9788818359375 L 30.43633651733398 66.97846984863281 C 34.31473541259766 66.97846984863281 38.07806777954102 66.11312103271484 41.62178802490234 64.40647125244141 C 45.05482482910156 62.75312042236328 48.14040756225586 60.38348007202148 50.79281616210938 57.36337280273438 C 53.45346832275391 54.33386993408203 55.54324722290039 50.80377960205078 57.00408554077148 46.87116241455078 C 58.51913833618164 42.7926025390625 59.28733825683594 38.45848846435547 59.28733825683594 33.98923110961914 C 59.28733825683594 29.51998138427734 58.51913833618164 25.18587875366211 57.00408554077148 21.1073112487793 C 55.54324722290039 17.17469024658203 53.45346832275391 13.64461135864258 50.79281616210938 10.6151123046875 C 48.14040756225586 7.595001220703125 45.05482482910156 5.225360870361328 41.62178802490234 3.571998596191406 C 38.07806777954102 1.865348815917969 34.31473541259766 1 30.43633651733398 1 M 30.43633651733398 0 C 46.92258834838867 0 60.28733825683594 15.21751022338867 60.28733825683594 33.98923110961914 C 60.28733825683594 52.76097869873047 46.92258834838867 67.97846984863281 30.43633651733398 67.97846984863281 C 23.36374855041504 67.97846984863281 11.67494583129883 68.17974090576172 2.354228973388672 59.68243026733398 C -6.966484069824219 51.18511962890625 -6.846523284912109 44.70790100097656 -6.846523284912109 33.98923110961914 C -6.846523284912109 15.21751022338867 13.95007705688477 0 30.43633651733398 0 Z" stroke="none" fill="#fff"/>
    </g>
    <g id="パス_107" data-name="パス 107" transform="translate(366.765 1006.007)" fill="#ffd64d">
      <path d="M 9.461531639099121 30.04387092590332 C 7.690651893615723 30.04387092590332 5.793231964111328 30.00642967224121 3.779762029647827 29.55891036987305 C 1.340161919593811 29.01667976379395 -0.6732980608940125 27.99864959716797 -2.375678062438965 26.4466609954834 C -4.251698017120361 24.73637962341309 -5.32329797744751 23.16366004943848 -5.850277900695801 21.34725952148438 C -6.34716796875 19.63455009460449 -6.346908092498779 17.78931999206543 -6.346578121185303 15.45319080352783 L -6.346558094024658 15.27184009552002 C -6.346558094024658 13.33790016174316 -5.83676815032959 11.41814041137695 -4.831347942352295 9.56588077545166 C -3.909548044204712 7.867680549621582 -2.558868169784546 6.238510608673096 -0.9253080487251282 4.854510307312012 C 2.293001890182495 2.127850532531738 6.341772079467773 0.5000004768371582 9.905152320861816 0.5000004768371582 C 13.34180164337158 0.5000004768371582 16.57655143737793 2.028160572052002 19.01352119445801 4.802960395812988 C 21.46664237976074 7.596150398254395 22.8176326751709 11.31407070159912 22.8176326751709 15.27184009552002 C 22.8176326751709 19.22961044311523 21.46664237976074 22.94753074645996 19.01352119445801 25.74073028564453 C 16.57655143737793 28.51552963256836 13.34180164337158 30.0436897277832 9.905152320861816 30.0436897277832 L 9.68917179107666 30.04378128051758 L 9.461531639099121 30.04387092590332 Z" stroke="none"/>
      <path d="M 9.9051513671875 1 C 8.223551750183105 1 6.367081642150879 1.38994026184082 4.536432266235352 2.127660751342773 C 2.70277214050293 2.86659049987793 0.9259023666381836 3.941440582275391 -0.6020984649658203 5.236000061035156 C -2.188867568969727 6.580360412597656 -3.499368667602539 8.160091400146484 -4.391908645629883 9.804410934448242 C -5.357147216796875 11.5826301574707 -5.8465576171875 13.42214012145996 -5.8465576171875 15.27184009552002 L -5.846578598022461 15.45329093933105 C -5.84722900390625 20.0646800994873 -5.847587585449219 22.6048698425293 -2.038827896118164 26.0771598815918 C 1.763812065124512 29.54387092590332 6.582442283630371 29.54387092590332 9.461482048034668 29.54387092590332 L 9.9051513671875 29.54368019104004 C 16.74941253662109 29.54368019104004 22.3176212310791 23.14136123657227 22.3176212310791 15.27184009552002 C 22.3176212310791 7.402320861816406 16.74941253662109 1 9.9051513671875 1 M 9.9051513671875 0 C 17.31265258789062 0 23.3176212310791 6.837440490722656 23.3176212310791 15.27184009552002 C 23.3176212310791 23.70625114440918 17.31265258789062 30.54368019104004 9.9051513671875 30.54368019104004 C 6.727331161499023 30.54368019104004 1.475391387939453 30.63412094116211 -2.71253776550293 26.81616020202637 C -6.900468826293945 22.99818992614746 -6.8465576171875 20.087890625 -6.8465576171875 15.27184009552002 C -6.8465576171875 6.837440490722656 2.497641563415527 0 9.9051513671875 0 Z" stroke="none" fill="#fff"/>
    </g>
  </g>
</svg>
