<svg xmlns="http://www.w3.org/2000/svg" width="54" height="54" viewBox="0 0 54 54">
  <g id="Group_62" data-name="Group 62" transform="translate(-128 -1120)">
    <circle id="Ellipse_23" data-name="Ellipse 23" cx="27" cy="27" r="27" transform="translate(128 1120)" fill="#1d9bf0"/>
    <g id="Logo_1_" transform="translate(145.027 1138.212)">
      <path id="white_background" d="M17.109,5.128c.011.158.011.316.011.476A10.4,10.4,0,0,1,6.644,16.079v0A10.423,10.423,0,0,1,1,14.426a7.49,7.49,0,0,0,.876.053A7.393,7.393,0,0,0,6.449,12.9a3.686,3.686,0,0,1-3.44-2.557,3.67,3.67,0,0,0,1.662-.063A3.682,3.682,0,0,1,1.718,6.671V6.624a3.658,3.658,0,0,0,1.671.461A3.686,3.686,0,0,1,2.25,2.169,10.45,10.45,0,0,0,9.838,6.016a3.685,3.685,0,0,1,6.274-3.358,7.388,7.388,0,0,0,2.338-.894A3.7,3.7,0,0,1,16.832,3.8a7.322,7.322,0,0,0,2.114-.58A7.48,7.48,0,0,1,17.109,5.128Z" transform="translate(0 0)" fill="#fff"/>
    </g>
  </g>
</svg>
