<svg xmlns="http://www.w3.org/2000/svg" width="89.676" height="119.147" viewBox="0 0 89.676 119.147">
  <g id="music_アートボード_1_のコピー_2" data-name="music_アートボード 1 のコピー 2" transform="translate(-24.09 -7.61)">
    <path id="Path_102" data-name="Path 102" d="M32.786,43.508l-8.7-27.5,8.31-2.63,10.918,17.18-1-20.319,8.327-2.63,8.7,27.5-5.154,1.628L47.341,15.1l1.388,23.374-5.344,1.679L31.074,20.229l6.872,21.645Z" transform="translate(0 0)" fill="#cbbcff"/>
    <path id="Path_103" data-name="Path 103" d="M124.019,24.85l4.219,4L117.454,40.172a32.881,32.881,0,0,0-3.167,3.637,4.684,4.684,0,0,0-.672,3.285,6.156,6.156,0,0,0,2.043,3.43,5.771,5.771,0,0,0,3.419,1.83,4.007,4.007,0,0,0,2.8-.755,32.312,32.312,0,0,0,3.57-3.358l11.007-11.556,4.214,4.018L130.213,51.683a39.071,39.071,0,0,1-5.406,4.986,8.131,8.131,0,0,1-3.755,1.416,8.8,8.8,0,0,1-4.079-.638,14.8,14.8,0,0,1-4.611-3.2,15.958,15.958,0,0,1-3.878-5.036,8.953,8.953,0,0,1-.727-4.124,7.834,7.834,0,0,1,1.024-3.436,34.587,34.587,0,0,1,4.633-5.691Z" transform="translate(-36.84 -7.593)" fill="#cbbcff"/>
    <path id="Path_104" data-name="Path 104" d="M142.746,105.833l-.42,5.68a6.749,6.749,0,0,0-4.477,1.332,6.285,6.285,0,0,0-2.031,3.917,6.458,6.458,0,0,0,.453,4.376,3.537,3.537,0,0,0,2.5,1.88,2.619,2.619,0,0,0,1.819-.3,4.779,4.779,0,0,0,1.584-1.852q.52-.946,2.031-4.382,1.942-4.415,3.917-5.993a7.5,7.5,0,0,1,6.156-1.628,7.387,7.387,0,0,1,3.85,1.931,7.8,7.8,0,0,1,2.238,4.04,14.388,14.388,0,0,1,0,5.764q-.912,5.355-3.733,7.655a8.394,8.394,0,0,1-6.749,1.757l.733-5.781a5.058,5.058,0,0,0,3.425-1.035,5.869,5.869,0,0,0,1.584-3.47,6.615,6.615,0,0,0-.353-4.1,2.1,2.1,0,0,0-1.606-1.214,2.238,2.238,0,0,0-1.875.56c-.728.621-1.679,2.272-2.8,4.947a28.2,28.2,0,0,1-3.117,5.842,8.1,8.1,0,0,1-3.425,2.647,8.624,8.624,0,0,1-4.723.353,8.5,8.5,0,0,1-4.342-2.143,8.26,8.26,0,0,1-2.513-4.387,16.509,16.509,0,0,1,0-6.363q.934-5.389,3.917-7.834A11.252,11.252,0,0,1,142.746,105.833Z" transform="translate(-46.893 -43.248)" fill="#cbbcff"/>
    <path id="Path_105" data-name="Path 105" d="M112.986,154l17.873,22.636-4.566,3.609L108.42,157.609Z" transform="translate(-37.139 -64.471)" fill="#cbbcff"/>
    <path id="Path_106" data-name="Path 106" d="M55.21,177.793l-5.445-2.322a12.705,12.705,0,0,1,4.969-6.57,12.2,12.2,0,0,1,7.834-1.539,12.39,12.39,0,0,1,9.037,4.8q3.307,4.264,2.647,11.041-.7,7.163-4.779,10.772a12.719,12.719,0,0,1-10.112,3.022,12.011,12.011,0,0,1-8.26-3.917,11.393,11.393,0,0,1-2.423-5.6l5.87-.772a5.965,5.965,0,0,0,5.6,5.4,6.558,6.558,0,0,0,5.4-1.791q2.21-2.1,2.7-7.23.532-5.439-1.2-7.941a6.39,6.39,0,0,0-4.868-2.8,5.814,5.814,0,0,0-4.119,1.086A8.387,8.387,0,0,0,55.21,177.793Z" transform="translate(-10.83 -70.318)" fill="#cbbcff"/>
  </g>
</svg>
