<svg id="レイヤー_1" data-name="レイヤー 1" xmlns="http://www.w3.org/2000/svg" viewBox="0 0 375.81 320.18"><path d="M284.73,76.91c-2.13,9.36-12,15-20.65,13.18-1.08-.23-2.89.77-3.7,1.74-4.75,5.75-8.81,12.16-14.08,17.36-4.36,4.3-10.22,7-15.13,10.83-8.59,6.65-16.92,13.64-25.46,20.36s-13.07,15.08-14,26.08c-.61,7.11-2.11,14.66-9.26,18.95a10.55,10.55,0,0,1-4.54,1.77c-2.85.14-4.73-.5-4.21-4.51,1.15-8.76,6.68-15,11.32-21.83,2.64-3.87,6-7,5.49-12.56-.51-5.26.44-10.67-.27-16.15-4.58,7-8.88,14.18-13.85,20.86a32.91,32.91,0,0,1-9.49,8.53c-4.89,2.84-8.22.69-7-4.72a126.34,126.34,0,0,1,7.88-24.88c3.18-7,12.55-7.51,17.67-2.24a70.79,70.79,0,0,1-7.41-.05c-4.47-.46-7.09,2.23-8.45,5.63a140.48,140.48,0,0,0-5.38,17.43c-.41,1.62.65,3.6,1,5.42,1.71-.74,4.06-1,5-2.29,5.76-7.69,11.26-15.57,16.7-23.48,1.59-2.31,2.48-5.09,4.07-7.38.83-1.2,2.51-1.8,3.8-2.67.41,1.29,1.21,2.59,1.16,3.86-.24,5.95-.74,11.9-1.11,17.85-.08,1.27,0,2.54,0,4.28,9.25-8.81,17.64-17.63,26.94-25.34,5.24-4.34,8.47-8.26,9.25-15.53,1-9.43,6.3-17.69,12.5-25,5.4-6.36,10.46-6.84,17.35-2.16.58.39,1.65,0,2.47.16,1,.18,2.23.26,2.87.89,1.2,1.19,2.24,4,3,3.91a28.18,28.18,0,0,0,9.16-2.9C280.8,81,282.65,78.75,284.73,76.91Zm-50.4,31.55c.5,1,.89,3.14,2,3.59a4.91,4.91,0,0,0,4.4-1.24c5.9-6.85,11.74-13.78,17.14-21,1.41-1.88,1.17-5,1.69-7.53-3.45-.19-7.89-1.86-10.17-.32C240.42,88,236.29,97.38,234.33,108.46Zm-44.56,53-1.58-.56a31,31,0,0,0-8.34,17,18.91,18.91,0,0,0,.39,4.33c1.15-1,2.85-1.85,3.35-3.14C185.84,173.25,187.74,167.32,189.77,161.44Z"/><path d="M0,318.69l4.78-7.07.64,1.31c1.18,0,2.8.5,3.49-.08,7.05-6,14.91-11.39,20.67-18.48,7.56-9.32,15-19.34,19.67-30.27,8.22-19.19-.18-26.11-16-32.66-6.33-2.63-12.76-5.07-18.84-8.18-6.67-3.41-9.91-9.21-8.81-16.8,1.31-9.05,4.19-17.57,10-24.91-1.89,5-4.18,9.89-5.61,15-4.21,15.05,1.45,20.49,13.22,26.53,7.74,4,16.12,6.66,24,10.46,10.67,5.18,11.4,14.89,8.89,23.48-4,13.73-12.25,25.11-21.77,35.28-8.45,9-18.19,16.86-27.5,25.07-1.52,1.34-3.74,1.88-5.64,2.79Z"/><path d="M88.75,187.23c-1.11,6.1-2.46,12.17-3.25,18.31a51.66,51.66,0,0,0-.23,12.36c.53,4.66,4,6.18,7.2,2.85a70.39,70.39,0,0,0,11.13-15c4.34-7.9,7.58-16.4,11.63-24.47.81-1.61,3.18-2.43,4.82-3.61.37,1.55,1,3.11,1,4.66,0,2.11-1,4.23-.92,6.3s.9,5.67,1.82,5.81c2.49.38,5.71,0,7.69-1.42,2.59-1.85,4.07-5.19,6.41-7.51a21,21,0,0,1,8.33-5.1c-7,6.37-9.86,17.16-20.83,19.15-6.69,1.23-7.59.84-9.44-6.68-3.63,6.53-6.48,12.81-10.39,18.35-3.63,5.15-7.74,10.45-12.81,14-6.08,4.25-10.36,1.25-10.08-5.84.38-9.37,2.19-18.68,3.66-28,.28-1.73,1.88-3.26,2.87-4.88Z"/><path d="M354.13,2.38a86.14,86.14,0,0,0-7.54,4.17,166.87,166.87,0,0,0-34.72,32c-1.73,2.11-2.57,5.35-2.85,8.17-.83,8.18-1,16.43-1.77,24.61-.4,4-3.75,5.31-7.33,5.18-3.92-.14-4-3-3.92-6.1.38-9.58,3.6-18,8.35-26.36,2.22-3.89,1.21-9.59,1.84-14.44.31-2.41,1-4.77,1.54-7.16l1.94.23V37.47c2.17-2.34,3.51-4,5.07-5.44,10.7-9.71,21.4-19.42,32.24-29C348.62,1.61,351,1,353,0Zm-52.78,67.1,1.71.37,2.38-20.17C300.52,55.72,300.62,62.55,301.35,69.48Z"/><path d="M20.58,174.28c7.73-13.9,16.75-26.85,29.43-36.82.26-.21.52-.54.8-.58,2-.28,4-.49,6-.73-1.37,1.37-2.68,2.79-4.11,4.08C46.8,145.48,40.5,150.31,35.11,156S25.39,168.15,20.58,174.28Z"/><path d="M365.73,29.33c.95-1,1.8-2.68,2.88-2.85a21.61,21.61,0,0,1,6.38.44c.34,0,.55,1,.82,1.59a40.16,40.16,0,0,1-5.2,1.92,20.34,20.34,0,0,1-4.35.06C366.08,30.1,365.9,29.72,365.73,29.33Z"/></svg>