<svg id="レイヤー_1" data-name="レイヤー 1" xmlns="http://www.w3.org/2000/svg" viewBox="0 0 764.48 307.38"><defs><style>.cls-1{fill:#fff;}</style></defs><path class="cls-1" d="M441.12,213.18c-25.78,0-49.15-11.73-62.53-31.38-12.72-18.67-15.2-42.36-7-65.41,10.95-38.47,49.22-61.34,80.84-61.34a60.9,60.9,0,0,1,18.42,2.77A150.41,150.41,0,0,1,516.73,10.3,54,54,0,0,1,548.27,0a54.76,54.76,0,0,1,53.5,65.16c19.72,5.15,40,18.64,48.49,39.5q1,2.45,1.73,4.92a49.62,49.62,0,0,1,8.5,6.42,45.33,45.33,0,0,1,13.84,40.87c-1.82,10.44-9,29.38-36.63,38.87a91.53,91.53,0,0,1-28.93,4.93c-.87,0-1.73,0-2.58,0A86.38,86.38,0,0,1,566.55,210a111,111,0,0,1-22.84-2.5,48.34,48.34,0,0,1-16.21-6.7,103.14,103.14,0,0,1-27.11-4.94,191,191,0,0,1-38.52,14.85q-.93.24-1.89.45A89.62,89.62,0,0,1,441.12,213.18Z"/><path class="cls-1" d="M281.46,291a45.12,45.12,0,0,1-28.24-10h0c-6.4-5.22-21.88-21.16-15.44-49.26a103.34,103.34,0,0,1,6.3-18.23c-1.88.14-3.74.2-5.59.2-19,0-35.75-7.37-47.25-20.75-9.74-11.34-14.88-26-14.88-42.34,0-43.9,36.71-93,85.84-93A73.2,73.2,0,0,1,280.8,60a64.08,64.08,0,0,1,25.85-6.22l1.76,0A55.4,55.4,0,0,1,332.11,59a42.5,42.5,0,0,1,19.82-4.9h8.87a42.53,42.53,0,0,1,40.39,55.81c-6,18.13-14.56,33.2-22.15,46.49-2.07,3.63-4,7.08-5.92,10.52C364.55,184.63,355.68,203,346.19,221c-.6,1.14-1.25,2.26-1.95,3.34-.95,1.91-2.77,6-4.15,9.1-3.49,7.85-7.45,16.75-11.82,24.67-4.49,8.12-18.14,32.86-46.8,32.87Z"/><path class="cls-1" d="M139.54,221.39a56.15,56.15,0,0,1-32.22-10.29,114.09,114.09,0,0,1-38.06,7c-22.52,0-41.87-8.25-54.49-23.23C6,184.37-3.53,166,1.31,138q.19-1.14.45-2.25c8.27-36.15,36-66.84,70.7-78.38a92.08,92.08,0,0,1,29.81-4.73c8.93,0,22.89,1.18,36.68,7a49.85,49.85,0,0,1,25.45-7,52.36,52.36,0,0,1,29.89,9.46c6.53-.46,12.9-.89,19.38-1.28,1-.07,2.09-.1,3.13-.1,25.39,0,45.56,18.89,48,44.92a42.53,42.53,0,0,1-12.91,34.59A53.16,53.16,0,0,1,216.43,155a109.82,109.82,0,0,1-12.79,21.43c-.4.53-.81,1.05-1.24,1.56-.69.84-2.24,3-3.48,4.7-9.76,13.51-27.91,38.65-59.37,38.66Z"/><path d="M126.05,159.46c6-21.68,23.85-35.49,41.89-47.29,7-5.55-9-6.16-9.27-14.41,5.48-5.34,12.63-2.1,19.77,8.14,13.12-.91,25.47-1.83,37.82-2.58,4.2-.26,5.81,2.46,6.16,6.28-4.91,4.71-11,2.27-16.6,2.77a161.7,161.7,0,0,0-24.61,4.32c1.32,13-3.87,24-11.51,34.18-9.36,11.26-23.38,38.78-40.42,23.48-.58-.77-1.58-1.66-1.51-2.41.58-9.89-25.48-3.65-31.49-2.16-23.17,9.72-59.12,10.49-53.07-24.56,4.94-21.6,22.05-40.82,43-47.63,15.57-5.66,49.76-2.32,49.29,19.07-7.94,3-9.72-7.06-16.76-8.32-7.42-1.67-14.87-3.89-22.39-4.24-23.09,5.35-42.19,24-44.36,48.5-.74,6.79,4.26,11.91,10.91,13.77C84.52,169.74,104.41,150.36,126.05,159.46ZM137.63,170c19.09-8.63,29.9-29.21,34.77-48.85C157.83,126.85,130,152.29,137.63,170Z"/><path class="cls-1" d="M576.78,307.38a42.52,42.52,0,0,1-42.33-38.53c-2.27-24.11,11-41.74,18.09-51.21,1.08-1.45,2.54-3.39,3.13-4.31a44.85,44.85,0,0,1,2.28-4.06c6.59-10.36,13.63-21.6,22.13-35.36,10.59-17.12,20.11-32.55,29.47-48a42.15,42.15,0,0,1,2.58-3.79c.69-1.28,1.74-3.31,2.56-4.89a194.18,194.18,0,0,1,10.53-18.58c8-11.94,22-26.17,43.58-26.17,18.43,0,34.94,11.08,43.09,28.92a42.52,42.52,0,0,1-1.43,38.18c-19.9,36.15-42,71.28-63.32,105.25l-.95,1.51c-7.27,12.07-16,26.23-26,40.2-5.57,8.07-17.52,20.15-39.37,20.66C579.5,307.31,578.14,307.38,576.78,307.38Z"/><path class="cls-1" d="M659.28,223.05c-1.06,0-2.12,0-3.18,0a42.52,42.52,0,0,1-41.25-42.63c.06-18.25,8.64-34.06,23.54-43.39q1-.63,2-1.2a45.31,45.31,0,0,1-2.35-5.6c-6.22-18.18-.41-37.82,14.78-50.61a67.77,67.77,0,0,1,44.83-17.43,66.38,66.38,0,0,1,56.37,31.56c12.49,19.9,13.81,44.77,3.61,66.75C741.41,197.94,702,223.05,659.28,223.05Z"/><path d="M657.37,180.5c0-17.31,26.07-1,47.43-31.86,14.81-16.17,6.4-44.65-18.63-30-5.65,1.86-11.35-2.37-5.61-6.82C702,92.13,731.7,116.5,718.88,143,708.83,166.91,682.67,181.26,657.37,180.5Z"/><path class="cls-1" d="M354.37,204A74.49,74.49,0,0,1,324,197.55a42.51,42.51,0,0,1-22.08-54.94l3-7.24a42.37,42.37,0,0,1,16.68-19.88,42.55,42.55,0,0,1,.42-23.22c7.4-24.37,29.8-40.74,55.74-40.74a63.39,63.39,0,0,1,41,15A60.49,60.49,0,0,1,440,110.13c1.91,22.78-6.27,46.14-22.62,64.41-16.75,18.72-39.7,29.46-63,29.47Z"/><path d="M362.62,104.62c5.39-17.75,34.85-11.88,34.88,8.12,3.17,28.58-29.05,58.06-56.27,46,1.24-3,2-5,3-7.24,22.91,5.14,48-15.13,43.85-39.17-2-8.26-8.88-12-15-6.56C368.18,110.1,365.73,108.49,362.62,104.62Z"/><path d="M284.86,108.83c6.89-5.67,13.24-12.24,23-12.51,7.46-.21,11.37,3.54,9.45,10.67-4.62,21.37-22.87,36.66-39.13,49.9,7,9.92,25.41,7,33.69,1.59,1.9-1.23,3.78-4.15,6.82-1.45,14-17.27,21.11-41.25,33.27-60.45h8.87c-6.12,18.59-16.32,33.94-25.51,50.86-8.71,18-17.42,36.06-26.73,53.79-5.11,6.67-20.95,52.87-28.64,46.67-8.4-6.38,31.49-66.39,34.75-79.52-14.75,5-30.15,8.47-42-3.69-2.4-2.09-4.19-2.25-6.83-1.19C179.06,204.69,228.78,64.75,284.86,108.83Zm-23.07.53c-20.17,2.42-32.59,22.33-34.15,41.69-.52,9.88,6.91,11.63,14.36,10.24,8.32-.81,25.78-4.07,26.69-14.15C267.89,124,292.78,114.27,261.79,109.36Zm17.44,35.57c10.43-12.23,25.37-21.22,28.66-39.29C291.81,109.64,279,130.48,279.23,144.93Z"/><path d="M505.71,142c7.45,6.4,35.17,11.16,39.49,2.28,3.76-17.06,17.21-28.74,31.69-37,11.84-8.13,45,10.65,31.59,23.62-3,1.42-5.32-1.28-6.2-4.56-10.49-24.26-39-4-45,13.35-1.21,5.12-8.15,15.79.15,17.68,14,3.16,25.42-2.28,36.29-10,4.38-3.16,6.9-10.78,13.31-6.68v7.31c7,1.64,13.47-1.08,19.78-3.54,20.15,7.25-18.92,18.19-26.3,11.62a5.76,5.76,0,0,0-5,.72c-12.69,11.09-27.59,12.28-43,9-3.57-.76-6.32-5.36-9.82-8.54A58.88,58.88,0,0,1,500,149c-1.8-1-2.41-1-3.75-.14A145.37,145.37,0,0,1,451,169.58c-26.62,5.75-49.92-12.06-38.83-40.22,8.18-33.43,63.28-44.24,50.55-14.13-11.55-17.57-36-2.52-40.25,13.87a135.69,135.69,0,0,0-3.65,17.44c2.05,19.06,32.85,15.64,45.58,8.42,8.6-6.16,28.47-7.63,28.9-20.35C489.87,100,512,63.36,541,45.24c9.2-7.65,22.43,2.1,18.54,13.61-3.29,9.31-5.72,19-9.72,28C538.59,107.7,522.72,125.67,505.71,142Zm-2.94-11c17.2-13.82,49.79-55.89,47.45-78.48C525.07,57.51,494.74,114.1,502.77,131Z"/><path d="M673.22,119.05c-19.67,35.71-41.49,70.36-63.24,105-7.83,13-15.85,25.85-24.66,38.2-2.23,3.46-5.62,2-8.54,2.63-1.12-11.91,12.06-22.22,17.05-32.77q11.34-17.82,22.42-35.82c10-16.09,19.89-32.19,29.68-48.38C651.44,142.39,665.56,102.28,673.22,119.05Z"/></svg>